<mxfile host="Electron" agent="Mozilla/5.0 (Windows NT 10.0; Win64; x64) AppleWebKit/537.36 (KHTML, like Gecko) draw.io/24.7.8 Chrome/128.0.6613.36 Electron/32.0.1 Safari/537.36" version="24.7.8">
  <diagram name="Halaman-1" id="aoqG2UJsjmu9qE-R1NFX">
    <mxGraphModel dx="1952" dy="1708" grid="1" gridSize="10" guides="1" tooltips="1" connect="1" arrows="1" fold="1" page="0" pageScale="1" pageWidth="827" pageHeight="1169" math="0" shadow="0">
      <root>
        <mxCell id="0" />
        <mxCell id="1" parent="0" />
        <mxCell id="FYlPLXtmQj6snUq1epLe-45" value="" style="shape=partialRectangle;whiteSpace=wrap;html=1;bottom=0;right=0;fillColor=none;flipH=0;flipV=1;" parent="1" vertex="1">
          <mxGeometry x="40" y="930" width="560" height="110" as="geometry" />
        </mxCell>
        <mxCell id="wc6qztgDE9MtCntjSy3h-3" value="" style="edgeStyle=none;curved=1;rounded=0;orthogonalLoop=1;jettySize=auto;html=1;fontSize=12;startSize=8;endSize=8;" parent="1" source="wc6qztgDE9MtCntjSy3h-1" target="wc6qztgDE9MtCntjSy3h-2" edge="1">
          <mxGeometry relative="1" as="geometry" />
        </mxCell>
        <mxCell id="wc6qztgDE9MtCntjSy3h-1" value="Start" style="ellipse;whiteSpace=wrap;html=1;" parent="1" vertex="1">
          <mxGeometry x="200" y="-120" width="106" height="62" as="geometry" />
        </mxCell>
        <mxCell id="wc6qztgDE9MtCntjSy3h-5" value="" style="edgeStyle=none;curved=1;rounded=0;orthogonalLoop=1;jettySize=auto;html=1;fontSize=12;startSize=8;endSize=8;" parent="1" source="wc6qztgDE9MtCntjSy3h-2" target="wc6qztgDE9MtCntjSy3h-4" edge="1">
          <mxGeometry relative="1" as="geometry" />
        </mxCell>
        <mxCell id="wc6qztgDE9MtCntjSy3h-2" value="&lt;font style=&quot;font-size: 10px;&quot;&gt;Output&lt;/font&gt;&lt;div style=&quot;font-size: 10px;&quot;&gt;&lt;b&gt;&lt;font style=&quot;font-size: 10px;&quot;&gt;Program CRUD Catatan Pribad&lt;/font&gt;&lt;span style=&quot;font-size: 10px;&quot;&gt;i&amp;nbsp;&lt;/span&gt;&lt;/b&gt;&lt;/div&gt;" style="shape=parallelogram;perimeter=parallelogramPerimeter;whiteSpace=wrap;html=1;fixedSize=1;" parent="1" vertex="1">
          <mxGeometry x="182" y="-30" width="142" height="64" as="geometry" />
        </mxCell>
        <mxCell id="wc6qztgDE9MtCntjSy3h-9" value="" style="edgeStyle=none;curved=1;rounded=0;orthogonalLoop=1;jettySize=auto;html=1;fontSize=12;startSize=8;endSize=8;" parent="1" source="wc6qztgDE9MtCntjSy3h-4" target="wc6qztgDE9MtCntjSy3h-8" edge="1">
          <mxGeometry relative="1" as="geometry" />
        </mxCell>
        <mxCell id="wc6qztgDE9MtCntjSy3h-4" value="&lt;span style=&quot;font-size: 10px;&quot;&gt;&lt;b&gt;Input&lt;/b&gt;&lt;/span&gt;&lt;br&gt;&lt;div&gt;&lt;span style=&quot;font-size: 10px;&quot;&gt;Username&amp;nbsp;&lt;/span&gt;&lt;/div&gt;&lt;div&gt;&lt;span style=&quot;font-size: 10px;&quot;&gt;Password&lt;/span&gt;&lt;/div&gt;" style="shape=parallelogram;perimeter=parallelogramPerimeter;whiteSpace=wrap;html=1;fixedSize=1;" parent="1" vertex="1">
          <mxGeometry x="180" y="80" width="142" height="64" as="geometry" />
        </mxCell>
        <mxCell id="OFa0QZV5chmp_ZGWXEVX-45" value="" style="edgeStyle=orthogonalEdgeStyle;rounded=0;orthogonalLoop=1;jettySize=auto;html=1;" parent="1" source="wc6qztgDE9MtCntjSy3h-8" target="wc6qztgDE9MtCntjSy3h-4" edge="1">
          <mxGeometry relative="1" as="geometry">
            <mxPoint x="120" y="100" as="targetPoint" />
            <Array as="points">
              <mxPoint x="140" y="247" />
              <mxPoint x="140" y="100" />
            </Array>
          </mxGeometry>
        </mxCell>
        <mxCell id="OFa0QZV5chmp_ZGWXEVX-47" value="" style="edgeStyle=orthogonalEdgeStyle;rounded=0;orthogonalLoop=1;jettySize=auto;html=1;" parent="1" source="wc6qztgDE9MtCntjSy3h-8" target="wc6qztgDE9MtCntjSy3h-15" edge="1">
          <mxGeometry relative="1" as="geometry" />
        </mxCell>
        <mxCell id="wc6qztgDE9MtCntjSy3h-8" value="username and password &quot;true&quot;" style="rhombus;whiteSpace=wrap;html=1;" parent="1" vertex="1">
          <mxGeometry x="187" y="198" width="132" height="98" as="geometry" />
        </mxCell>
        <mxCell id="OFa0QZV5chmp_ZGWXEVX-49" value="" style="edgeStyle=orthogonalEdgeStyle;rounded=0;orthogonalLoop=1;jettySize=auto;html=1;" parent="1" source="wc6qztgDE9MtCntjSy3h-15" target="OFa0QZV5chmp_ZGWXEVX-48" edge="1">
          <mxGeometry relative="1" as="geometry" />
        </mxCell>
        <mxCell id="wc6qztgDE9MtCntjSy3h-15" value="&lt;b&gt;Output&amp;nbsp;&lt;/b&gt;&lt;div&gt;Catatan Ku&lt;/div&gt;&lt;div&gt;Menu :&lt;/div&gt;&lt;div&gt;[1] Lihat Daftar Catatan&lt;/div&gt;&lt;div&gt;[2] Tambah Catatan&lt;/div&gt;&lt;div&gt;[3] Edit Catatan&lt;/div&gt;&lt;div&gt;[4] Hapus Catatan&amp;nbsp;&lt;/div&gt;&lt;div&gt;[5] Keluar Program&lt;/div&gt;" style="shape=parallelogram;perimeter=parallelogramPerimeter;whiteSpace=wrap;html=1;fixedSize=1;" parent="1" vertex="1">
          <mxGeometry x="159" y="340" width="188" height="132" as="geometry" />
        </mxCell>
        <mxCell id="wc6qztgDE9MtCntjSy3h-19" value="" style="edgeStyle=none;curved=1;rounded=0;orthogonalLoop=1;jettySize=auto;html=1;fontSize=12;startSize=8;endSize=8;" parent="1" source="wc6qztgDE9MtCntjSy3h-16" target="wc6qztgDE9MtCntjSy3h-18" edge="1">
          <mxGeometry relative="1" as="geometry" />
        </mxCell>
        <mxCell id="wc6qztgDE9MtCntjSy3h-21" value="" style="edgeStyle=none;curved=1;rounded=0;orthogonalLoop=1;jettySize=auto;html=1;fontSize=12;startSize=8;endSize=8;" parent="1" source="wc6qztgDE9MtCntjSy3h-16" target="wc6qztgDE9MtCntjSy3h-20" edge="1">
          <mxGeometry relative="1" as="geometry" />
        </mxCell>
        <mxCell id="wc6qztgDE9MtCntjSy3h-16" value="Pilihan = 1" style="rhombus;whiteSpace=wrap;html=1;" parent="1" vertex="1">
          <mxGeometry x="209.5" y="605" width="87" height="80" as="geometry" />
        </mxCell>
        <mxCell id="FYlPLXtmQj6snUq1epLe-4" value="" style="edgeStyle=orthogonalEdgeStyle;rounded=0;orthogonalLoop=1;jettySize=auto;html=1;" parent="1" source="wc6qztgDE9MtCntjSy3h-18" target="FYlPLXtmQj6snUq1epLe-3" edge="1">
          <mxGeometry relative="1" as="geometry" />
        </mxCell>
        <mxCell id="wc6qztgDE9MtCntjSy3h-18" value="&lt;b&gt;Output&amp;nbsp;&lt;/b&gt;&lt;div&gt;Lihat Catatan&lt;/div&gt;" style="shape=parallelogram;perimeter=parallelogramPerimeter;whiteSpace=wrap;html=1;fixedSize=1;" parent="1" vertex="1">
          <mxGeometry x="193" y="730" width="120" height="60" as="geometry" />
        </mxCell>
        <mxCell id="OFa0QZV5chmp_ZGWXEVX-14" value="" style="edgeStyle=orthogonalEdgeStyle;rounded=0;orthogonalLoop=1;jettySize=auto;html=1;" parent="1" source="wc6qztgDE9MtCntjSy3h-20" target="OFa0QZV5chmp_ZGWXEVX-13" edge="1">
          <mxGeometry relative="1" as="geometry" />
        </mxCell>
        <mxCell id="OFa0QZV5chmp_ZGWXEVX-19" value="" style="edgeStyle=orthogonalEdgeStyle;rounded=0;orthogonalLoop=1;jettySize=auto;html=1;" parent="1" source="wc6qztgDE9MtCntjSy3h-20" target="OFa0QZV5chmp_ZGWXEVX-18" edge="1">
          <mxGeometry relative="1" as="geometry" />
        </mxCell>
        <mxCell id="FYlPLXtmQj6snUq1epLe-12" value="" style="edgeStyle=orthogonalEdgeStyle;rounded=0;orthogonalLoop=1;jettySize=auto;html=1;" parent="1" source="OFa0QZV5chmp_ZGWXEVX-13" target="OFa0QZV5chmp_ZGWXEVX-15" edge="1">
          <mxGeometry relative="1" as="geometry" />
        </mxCell>
        <mxCell id="OFa0QZV5chmp_ZGWXEVX-13" value="&lt;b&gt;Input&lt;/b&gt;&lt;div&gt;Tanggal Catatan&lt;/div&gt;&lt;div&gt;Isi Catatan&amp;nbsp;&lt;/div&gt;" style="shape=parallelogram;perimeter=parallelogramPerimeter;whiteSpace=wrap;html=1;fixedSize=1;" parent="1" vertex="1">
          <mxGeometry x="353.5" y="730" width="120" height="60" as="geometry" />
        </mxCell>
        <mxCell id="OFa0QZV5chmp_ZGWXEVX-32" value="" style="edgeStyle=orthogonalEdgeStyle;rounded=0;orthogonalLoop=1;jettySize=auto;html=1;" parent="1" source="OFa0QZV5chmp_ZGWXEVX-15" target="OFa0QZV5chmp_ZGWXEVX-31" edge="1">
          <mxGeometry relative="1" as="geometry" />
        </mxCell>
        <mxCell id="OFa0QZV5chmp_ZGWXEVX-15" value="&lt;b&gt;Output&lt;/b&gt;&lt;div&gt;Catatan Berhasil Di Tambahkan&lt;/div&gt;" style="shape=parallelogram;perimeter=parallelogramPerimeter;whiteSpace=wrap;html=1;fixedSize=1;" parent="1" vertex="1">
          <mxGeometry x="343.5" y="830" width="140" height="60" as="geometry" />
        </mxCell>
        <mxCell id="OFa0QZV5chmp_ZGWXEVX-21" value="" style="edgeStyle=orthogonalEdgeStyle;rounded=0;orthogonalLoop=1;jettySize=auto;html=1;" parent="1" source="OFa0QZV5chmp_ZGWXEVX-18" target="OFa0QZV5chmp_ZGWXEVX-20" edge="1">
          <mxGeometry relative="1" as="geometry" />
        </mxCell>
        <mxCell id="OFa0QZV5chmp_ZGWXEVX-26" value="" style="edgeStyle=orthogonalEdgeStyle;rounded=0;orthogonalLoop=1;jettySize=auto;html=1;" parent="1" source="OFa0QZV5chmp_ZGWXEVX-18" target="OFa0QZV5chmp_ZGWXEVX-25" edge="1">
          <mxGeometry relative="1" as="geometry" />
        </mxCell>
        <mxCell id="OFa0QZV5chmp_ZGWXEVX-18" value="Pilihan = 3" style="rhombus;whiteSpace=wrap;html=1;" parent="1" vertex="1">
          <mxGeometry x="560" y="605" width="87" height="80" as="geometry" />
        </mxCell>
        <mxCell id="FYlPLXtmQj6snUq1epLe-16" value="" style="edgeStyle=orthogonalEdgeStyle;rounded=0;orthogonalLoop=1;jettySize=auto;html=1;" parent="1" source="OFa0QZV5chmp_ZGWXEVX-20" target="OFa0QZV5chmp_ZGWXEVX-22" edge="1">
          <mxGeometry relative="1" as="geometry" />
        </mxCell>
        <mxCell id="OFa0QZV5chmp_ZGWXEVX-20" value="&lt;b style=&quot;&quot;&gt;&lt;font style=&quot;font-size: 12px;&quot;&gt;Input&lt;/font&gt;&lt;/b&gt;&lt;div style=&quot;&quot;&gt;&lt;font style=&quot;font-size: 12px;&quot;&gt;&lt;font style=&quot;font-size: 12px;&quot;&gt;&amp;nbsp;Index&amp;nbsp;&lt;/font&gt;&lt;span style=&quot;background-color: initial;&quot;&gt;catatan yang&amp;nbsp;&lt;/span&gt;&lt;/font&gt;&lt;/div&gt;&lt;div style=&quot;&quot;&gt;&lt;font style=&quot;font-size: 12px;&quot;&gt;ingin di edit&lt;/font&gt;&lt;/div&gt;&lt;div style=&quot;font-size: 10px;&quot;&gt;&lt;br&gt;&lt;/div&gt;" style="shape=parallelogram;perimeter=parallelogramPerimeter;whiteSpace=wrap;html=1;fixedSize=1;" parent="1" vertex="1">
          <mxGeometry x="534.25" y="730" width="138.5" height="65" as="geometry" />
        </mxCell>
        <mxCell id="OFa0QZV5chmp_ZGWXEVX-73" value="" style="edgeStyle=orthogonalEdgeStyle;rounded=0;orthogonalLoop=1;jettySize=auto;html=1;" parent="1" source="OFa0QZV5chmp_ZGWXEVX-22" target="OFa0QZV5chmp_ZGWXEVX-72" edge="1">
          <mxGeometry relative="1" as="geometry" />
        </mxCell>
        <mxCell id="OFa0QZV5chmp_ZGWXEVX-22" value="&lt;b&gt;Output&amp;nbsp;&lt;/b&gt;&lt;div&gt;Catatan berhasil di edit&amp;nbsp;&lt;/div&gt;" style="shape=parallelogram;perimeter=parallelogramPerimeter;whiteSpace=wrap;html=1;fixedSize=1;" parent="1" vertex="1">
          <mxGeometry x="523.5" y="830" width="160" height="60" as="geometry" />
        </mxCell>
        <mxCell id="OFa0QZV5chmp_ZGWXEVX-28" value="" style="edgeStyle=orthogonalEdgeStyle;rounded=0;orthogonalLoop=1;jettySize=auto;html=1;" parent="1" source="OFa0QZV5chmp_ZGWXEVX-25" target="OFa0QZV5chmp_ZGWXEVX-27" edge="1">
          <mxGeometry relative="1" as="geometry" />
        </mxCell>
        <mxCell id="OFa0QZV5chmp_ZGWXEVX-64" value="" style="edgeStyle=orthogonalEdgeStyle;rounded=0;orthogonalLoop=1;jettySize=auto;html=1;" parent="1" source="OFa0QZV5chmp_ZGWXEVX-25" target="OFa0QZV5chmp_ZGWXEVX-63" edge="1">
          <mxGeometry relative="1" as="geometry" />
        </mxCell>
        <mxCell id="OFa0QZV5chmp_ZGWXEVX-25" value="Pilihan = 4" style="rhombus;whiteSpace=wrap;html=1;" parent="1" vertex="1">
          <mxGeometry x="738" y="605" width="87" height="80" as="geometry" />
        </mxCell>
        <mxCell id="FYlPLXtmQj6snUq1epLe-18" value="" style="edgeStyle=orthogonalEdgeStyle;rounded=0;orthogonalLoop=1;jettySize=auto;html=1;" parent="1" source="OFa0QZV5chmp_ZGWXEVX-27" target="OFa0QZV5chmp_ZGWXEVX-29" edge="1">
          <mxGeometry relative="1" as="geometry" />
        </mxCell>
        <mxCell id="OFa0QZV5chmp_ZGWXEVX-27" value="&lt;b&gt;Input&amp;nbsp;&lt;/b&gt;&lt;div&gt;Index catatan&amp;nbsp;&lt;/div&gt;&lt;div&gt;yang ingin di hapus&lt;/div&gt;" style="shape=parallelogram;perimeter=parallelogramPerimeter;whiteSpace=wrap;html=1;fixedSize=1;" parent="1" vertex="1">
          <mxGeometry x="707.37" y="730" width="148.25" height="60" as="geometry" />
        </mxCell>
        <mxCell id="FYlPLXtmQj6snUq1epLe-19" value="" style="edgeStyle=orthogonalEdgeStyle;rounded=0;orthogonalLoop=1;jettySize=auto;html=1;" parent="1" source="OFa0QZV5chmp_ZGWXEVX-29" target="OFa0QZV5chmp_ZGWXEVX-76" edge="1">
          <mxGeometry relative="1" as="geometry" />
        </mxCell>
        <mxCell id="OFa0QZV5chmp_ZGWXEVX-29" value="&lt;b&gt;Output&lt;/b&gt;&lt;div&gt;Catatan ke (nomor catatan) berhasil dihapus&lt;/div&gt;" style="shape=parallelogram;perimeter=parallelogramPerimeter;whiteSpace=wrap;html=1;fixedSize=1;" parent="1" vertex="1">
          <mxGeometry x="691.49" y="830" width="180" height="60" as="geometry" />
        </mxCell>
        <mxCell id="OFa0QZV5chmp_ZGWXEVX-31" value="&lt;b&gt;Input&amp;nbsp;&lt;/b&gt;&lt;div&gt;Klik enter untuk memilih menu lagi&lt;/div&gt;" style="shape=parallelogram;perimeter=parallelogramPerimeter;whiteSpace=wrap;html=1;fixedSize=1;" parent="1" vertex="1">
          <mxGeometry x="333.5" y="930" width="160" height="60" as="geometry" />
        </mxCell>
        <mxCell id="OFa0QZV5chmp_ZGWXEVX-50" value="" style="edgeStyle=orthogonalEdgeStyle;rounded=0;orthogonalLoop=1;jettySize=auto;html=1;" parent="1" source="OFa0QZV5chmp_ZGWXEVX-48" target="wc6qztgDE9MtCntjSy3h-16" edge="1">
          <mxGeometry relative="1" as="geometry" />
        </mxCell>
        <mxCell id="OFa0QZV5chmp_ZGWXEVX-48" value="&lt;b&gt;Input&lt;/b&gt;&lt;div&gt;Masukkan pilihan&amp;nbsp;&lt;/div&gt;" style="shape=parallelogram;perimeter=parallelogramPerimeter;whiteSpace=wrap;html=1;fixedSize=1;" parent="1" vertex="1">
          <mxGeometry x="193" y="500" width="120" height="77" as="geometry" />
        </mxCell>
        <mxCell id="OFa0QZV5chmp_ZGWXEVX-66" value="" style="edgeStyle=orthogonalEdgeStyle;rounded=0;orthogonalLoop=1;jettySize=auto;html=1;" parent="1" source="OFa0QZV5chmp_ZGWXEVX-63" target="OFa0QZV5chmp_ZGWXEVX-65" edge="1">
          <mxGeometry relative="1" as="geometry" />
        </mxCell>
        <mxCell id="OFa0QZV5chmp_ZGWXEVX-83" value="" style="edgeStyle=orthogonalEdgeStyle;rounded=0;orthogonalLoop=1;jettySize=auto;html=1;" parent="1" source="OFa0QZV5chmp_ZGWXEVX-63" edge="1">
          <mxGeometry relative="1" as="geometry">
            <mxPoint x="1050" y="645" as="targetPoint" />
          </mxGeometry>
        </mxCell>
        <mxCell id="OFa0QZV5chmp_ZGWXEVX-63" value="Pilihan = 5" style="rhombus;whiteSpace=wrap;html=1;" parent="1" vertex="1">
          <mxGeometry x="907" y="605" width="87" height="80" as="geometry" />
        </mxCell>
        <mxCell id="sX42V4_6nj7cVVWGtTFy-5" value="" style="edgeStyle=orthogonalEdgeStyle;rounded=0;orthogonalLoop=1;jettySize=auto;html=1;" edge="1" parent="1" source="OFa0QZV5chmp_ZGWXEVX-65" target="sX42V4_6nj7cVVWGtTFy-4">
          <mxGeometry relative="1" as="geometry" />
        </mxCell>
        <mxCell id="OFa0QZV5chmp_ZGWXEVX-65" value="&lt;b&gt;Output&lt;/b&gt;&lt;div&gt;Anda Telah Keluar dari Program&lt;/div&gt;" style="shape=parallelogram;perimeter=parallelogramPerimeter;whiteSpace=wrap;html=1;fixedSize=1;" parent="1" vertex="1">
          <mxGeometry x="870" y="730" width="160" height="60" as="geometry" />
        </mxCell>
        <mxCell id="OFa0QZV5chmp_ZGWXEVX-72" value="&lt;b&gt;Input&lt;/b&gt;&lt;br&gt;&lt;div&gt;Klik enter untuk memilih menu lagi&lt;/div&gt;" style="shape=parallelogram;perimeter=parallelogramPerimeter;whiteSpace=wrap;html=1;fixedSize=1;" parent="1" vertex="1">
          <mxGeometry x="523.5" y="930" width="160" height="60" as="geometry" />
        </mxCell>
        <mxCell id="OFa0QZV5chmp_ZGWXEVX-76" value="&lt;b&gt;Input&lt;/b&gt;&lt;div&gt;Klik enter untuk&amp;nbsp;&lt;/div&gt;&lt;div&gt;memilih menu lagi&lt;/div&gt;" style="shape=parallelogram;perimeter=parallelogramPerimeter;whiteSpace=wrap;html=1;fixedSize=1;" parent="1" vertex="1">
          <mxGeometry x="692.5" y="930" width="178" height="60" as="geometry" />
        </mxCell>
        <mxCell id="FYlPLXtmQj6snUq1epLe-2" value="False" style="text;html=1;align=center;verticalAlign=middle;whiteSpace=wrap;rounded=0;" parent="1" vertex="1">
          <mxGeometry x="140" y="217" width="60" height="30" as="geometry" />
        </mxCell>
        <mxCell id="FYlPLXtmQj6snUq1epLe-35" value="" style="edgeStyle=orthogonalEdgeStyle;rounded=0;orthogonalLoop=1;jettySize=auto;html=1;" parent="1" edge="1">
          <mxGeometry relative="1" as="geometry">
            <mxPoint x="182" y="864.74" as="sourcePoint" />
            <mxPoint x="190" y="540" as="targetPoint" />
            <Array as="points">
              <mxPoint x="40" y="865" />
              <mxPoint x="40" y="540" />
            </Array>
          </mxGeometry>
        </mxCell>
        <mxCell id="FYlPLXtmQj6snUq1epLe-3" value="&lt;b&gt;Input&lt;/b&gt;&lt;div&gt;Klik enter untuk memilih menu lagi&lt;/div&gt;" style="shape=parallelogram;perimeter=parallelogramPerimeter;whiteSpace=wrap;html=1;fixedSize=1;" parent="1" vertex="1">
          <mxGeometry x="173" y="830" width="160" height="60" as="geometry" />
        </mxCell>
        <mxCell id="wc6qztgDE9MtCntjSy3h-20" value="&amp;nbsp;Pilihan = 2" style="rhombus;whiteSpace=wrap;html=1;" parent="1" vertex="1">
          <mxGeometry x="370" y="605" width="87" height="80" as="geometry" />
        </mxCell>
        <mxCell id="FYlPLXtmQj6snUq1epLe-20" value="True" style="text;html=1;align=center;verticalAlign=middle;whiteSpace=wrap;rounded=0;rotation=90;" parent="1" vertex="1">
          <mxGeometry x="243.5" y="700" width="53" height="10" as="geometry" />
        </mxCell>
        <mxCell id="FYlPLXtmQj6snUq1epLe-22" value="True" style="text;html=1;align=center;verticalAlign=middle;whiteSpace=wrap;rounded=0;rotation=90;" parent="1" vertex="1">
          <mxGeometry x="404" y="700" width="53" height="10" as="geometry" />
        </mxCell>
        <mxCell id="FYlPLXtmQj6snUq1epLe-23" value="True" style="text;html=1;align=center;verticalAlign=middle;whiteSpace=wrap;rounded=0;rotation=90;" parent="1" vertex="1">
          <mxGeometry x="594" y="700" width="53" height="10" as="geometry" />
        </mxCell>
        <mxCell id="FYlPLXtmQj6snUq1epLe-24" value="True" style="text;html=1;align=center;verticalAlign=middle;whiteSpace=wrap;rounded=0;rotation=90;" parent="1" vertex="1">
          <mxGeometry x="772" y="700" width="53" height="10" as="geometry" />
        </mxCell>
        <mxCell id="FYlPLXtmQj6snUq1epLe-25" value="True" style="text;html=1;align=center;verticalAlign=middle;whiteSpace=wrap;rounded=0;rotation=90;" parent="1" vertex="1">
          <mxGeometry x="941" y="700" width="53" height="10" as="geometry" />
        </mxCell>
        <mxCell id="FYlPLXtmQj6snUq1epLe-26" value="False" style="text;html=1;align=center;verticalAlign=middle;whiteSpace=wrap;rounded=0;rotation=0;" parent="1" vertex="1">
          <mxGeometry x="299.5" y="615" width="54" height="15" as="geometry" />
        </mxCell>
        <mxCell id="FYlPLXtmQj6snUq1epLe-29" value="False" style="text;html=1;align=center;verticalAlign=middle;whiteSpace=wrap;rounded=0;rotation=0;" parent="1" vertex="1">
          <mxGeometry x="473.5" y="615" width="54" height="15" as="geometry" />
        </mxCell>
        <mxCell id="FYlPLXtmQj6snUq1epLe-30" value="False" style="text;html=1;align=center;verticalAlign=middle;whiteSpace=wrap;rounded=0;rotation=0;" parent="1" vertex="1">
          <mxGeometry x="660" y="615" width="54" height="15" as="geometry" />
        </mxCell>
        <mxCell id="FYlPLXtmQj6snUq1epLe-31" value="False" style="text;html=1;align=center;verticalAlign=middle;whiteSpace=wrap;rounded=0;rotation=0;" parent="1" vertex="1">
          <mxGeometry x="836.5" y="615" width="54" height="15" as="geometry" />
        </mxCell>
        <mxCell id="FYlPLXtmQj6snUq1epLe-32" value="False" style="text;html=1;align=center;verticalAlign=middle;whiteSpace=wrap;rounded=0;rotation=0;" parent="1" vertex="1">
          <mxGeometry x="994" y="615" width="54" height="15" as="geometry" />
        </mxCell>
        <mxCell id="FYlPLXtmQj6snUq1epLe-33" value="True" style="text;html=1;align=center;verticalAlign=middle;whiteSpace=wrap;rounded=0;rotation=90;" parent="1" vertex="1">
          <mxGeometry x="246.5" y="310" width="53" height="10" as="geometry" />
        </mxCell>
        <mxCell id="FYlPLXtmQj6snUq1epLe-47" value="" style="shape=partialRectangle;whiteSpace=wrap;html=1;right=0;top=0;bottom=0;fillColor=none;routingCenterX=-0.5;" parent="1" vertex="1">
          <mxGeometry x="600" y="990" width="120" height="50" as="geometry" />
        </mxCell>
        <mxCell id="FYlPLXtmQj6snUq1epLe-48" value="" style="shape=partialRectangle;whiteSpace=wrap;html=1;top=0;left=0;fillColor=none;flipH=1;" parent="1" vertex="1">
          <mxGeometry x="40" y="860" width="300" height="100" as="geometry" />
        </mxCell>
        <mxCell id="FYlPLXtmQj6snUq1epLe-49" value="" style="shape=partialRectangle;whiteSpace=wrap;html=1;bottom=0;right=0;fillColor=none;flipH=1;flipV=1;" parent="1" vertex="1">
          <mxGeometry x="40" y="990" width="740" height="90" as="geometry" />
        </mxCell>
        <mxCell id="FYlPLXtmQj6snUq1epLe-50" value="" style="shape=partialRectangle;whiteSpace=wrap;html=1;right=0;top=0;bottom=0;fillColor=none;routingCenterX=-0.5;" parent="1" vertex="1">
          <mxGeometry x="40" y="1020" width="120" height="60" as="geometry" />
        </mxCell>
        <mxCell id="sX42V4_6nj7cVVWGtTFy-4" value="End" style="ellipse;whiteSpace=wrap;html=1;" vertex="1" parent="1">
          <mxGeometry x="890" y="830" width="120" height="80" as="geometry" />
        </mxCell>
        <mxCell id="sX42V4_6nj7cVVWGtTFy-6" value="End" style="ellipse;whiteSpace=wrap;html=1;" vertex="1" parent="1">
          <mxGeometry x="1048" y="605" width="120" height="80" as="geometry" />
        </mxCell>
      </root>
    </mxGraphModel>
  </diagram>
</mxfile>
